<?xml version="1.0" encoding="utf-8"?>
<!-- Generator: Adobe Illustrator 16.0.0, SVG Export Plug-In . SVG Version: 6.00 Build 0)  -->
<!DOCTYPE svg PUBLIC "-//W3C//DTD SVG 1.1//EN" "http://www.w3.org/Graphics/SVG/1.1/DTD/svg11.dtd">
<svg version="1.1" xmlns="http://www.w3.org/2000/svg" xmlns:xlink="http://www.w3.org/1999/xlink" x="0px" y="0px" width="500px"
	 height="100px" viewBox="0 0 500 100" style="enable-background:new 0 0 500 100;" xml:space="preserve">
<style type="text/css">
<![CDATA[
	.st0{fill:none;stroke:#fff;stroke-width:4;stroke-miterlimit:10;}
	.st1{fill:#fff;stroke:#fff;stroke-miterlimit:10;}
	.st2{fill:none;stroke:#fff;stroke-width:3;stroke-miterlimit:10;}
]]>
</style>
<g id="Layer_1">
	<circle class="st2" cx="320.4" cy="44.5" r="5"/>
	<circle class="st2" cx="420.4" cy="45.5" r="5"/>
	<circle class="st2" cx="384.4" cy="33" r="5"/>
	<polyline class="st2" points="380,32.5 363,32.5 355.6,43.8 	"/>
	<line class="st2" x1="278" y1="44.5" x2="315" y2="44.5"/>
	<line class="st2" x1="325" y1="44.5" x2="415" y2="44.5"/>
	<circle class="st2" cx="345.4" cy="63.5" r="5"/>
	<circle class="st2" cx="451" cy="70.5" r="5"/>
	<line class="st2" x1="276" y1="63.5" x2="341" y2="63.5"/>
	<polyline class="st2" points="350,63.5 419,63.5 427.8,70.5 446,70.5 	"/>
	<circle class="st2" cx="49" cy="47.5" r="5"/>
	<ellipse class="st2" cx="104.4" cy="41.5" rx="5" ry="5"/>
	<circle class="st2" cx="157.4" cy="55.5" r="5"/>
	<circle class="st2" cx="143.4" cy="30" r="5"/>
	<circle class="st2" cx="102.4" cy="71" r="5"/>
	<line class="st2" x1="162" y1="55.5" x2="221" y2="55.5"/>
	<polyline class="st2" points="108,70.5 127.8,70.5 136.7,55.1 	"/>
	<polyline class="st2" points="54,47.5 72.3,47.5 78.3,55.5 152,55.5 	"/>
	<line class="st2" x1="110" y1="42.5" x2="222" y2="42.5"/>
	<polyline class="st2" points="149,30.5 167,30.5 175.3,42.4 	"/>
	<circle class="st0" cx="250" cy="50" r="29"/>
</g>
<g id="Layer_2">
	<polygon class="st1" points="254.1,59.5 228.1,59.5 241.1,36.5 245.7,44.8 241.3,52.5 250.1,52.5 	"/>
	<polygon class="st1" points="266.1,59.5 258,59.5 245,36.5 253.1,36.5 258.6,36.5 262.5,43.5 257,43.5 262.1,52 268,52.3 
		271.9,59.5 	"/>
</g>
</svg>
