<svg xmlns="http://www.w3.org/2000/svg" xmlns:xlink="http://www.w3.org/1999/xlink" version="1.1" x="0px" y="0px" viewBox="0 0 48 50" enable-background="new 0 0 48 54" xml:space="preserve">
    <path fill="#fff" d="M2.129,42.936h43.742c0.514,0,0.934-0.418,0.934-0.934c0-0.515-0.42-0.933-0.934-0.933H3.062V8.224  c0-0.516-0.417-0.933-0.933-0.933c-0.515,0-0.933,0.417-0.933,0.933v33.778C1.196,42.518,1.614,42.936,2.129,42.936z"/>
    <path fill="#fff" d="M40.324,18.495c1.99,0,3.607-1.618,3.607-3.606s-1.617-3.606-3.607-3.606c-1.988,0-3.605,1.618-3.605,3.606  c0,0.712,0.215,1.372,0.572,1.931l-7.248,7.907c-0.496-0.259-1.055-0.42-1.652-0.42c-0.736,0-1.42,0.224-1.992,0.604l-4.674-4.125  c0.241-0.483,0.388-1.02,0.388-1.595c0-1.988-1.617-3.606-3.606-3.606c-1.988,0-3.606,1.618-3.606,3.606  c0,0.884,0.332,1.684,0.862,2.312l-5.007,7.201c-0.381-0.137-0.786-0.226-1.213-0.226c-1.989,0-3.606,1.618-3.606,3.606  c0,1.989,1.618,3.606,3.606,3.606c1.988,0,3.606-1.617,3.606-3.606c0-0.884-0.333-1.685-0.863-2.313l5.007-7.2  c0.382,0.138,0.787,0.226,1.214,0.226c0.737,0,1.42-0.224,1.992-0.604l4.674,4.125c-0.241,0.483-0.388,1.02-0.388,1.596  c0,1.987,1.619,3.605,3.607,3.605s3.605-1.618,3.605-3.605c0-0.713-0.213-1.372-0.57-1.932l7.246-7.907  C39.17,18.333,39.725,18.495,40.324,18.495z M40.324,13.148c0.961,0,1.74,0.78,1.74,1.74c0,0.96-0.779,1.74-1.74,1.74  c-0.447,0-0.854-0.176-1.162-0.456c-0.002-0.002-0.004-0.006-0.006-0.008c-0.006-0.004-0.012-0.005-0.016-0.009  c-0.34-0.318-0.555-0.767-0.555-1.268C38.586,13.929,39.367,13.148,40.324,13.148z M9.542,33.824c-0.96,0-1.74-0.78-1.74-1.74  c0-0.958,0.78-1.74,1.74-1.74c0.366,0,0.705,0.115,0.985,0.31c0.002,0.002,0.003,0.004,0.005,0.005c0.001,0,0.002,0,0.003,0.001  c0.45,0.315,0.746,0.835,0.746,1.425C11.281,33.044,10.5,33.824,9.542,33.824z M17.515,20.617  C17.515,20.617,17.515,20.617,17.515,20.617L17.515,20.617c-0.452-0.316-0.749-0.836-0.749-1.427c0-0.96,0.78-1.74,1.74-1.74  s1.74,0.78,1.74,1.74c0,0.431-0.164,0.821-0.424,1.125c-0.006,0.007-0.015,0.01-0.021,0.017c-0.009,0.01-0.011,0.023-0.019,0.033  c-0.318,0.344-0.77,0.564-1.275,0.564C18.138,20.93,17.797,20.813,17.515,20.617z M28.391,29.652c-0.959,0-1.74-0.78-1.74-1.739  c0-0.437,0.168-0.832,0.434-1.138c0.004-0.004,0.008-0.004,0.01-0.008c0.004-0.004,0.006-0.009,0.01-0.015  c0.318-0.354,0.773-0.58,1.287-0.58c0.959,0,1.738,0.78,1.738,1.74C30.129,28.872,29.35,29.652,28.391,29.652z"/>
</svg>