<svg xmlns="http://www.w3.org/2000/svg" xmlns:xlink="http://www.w3.org/1999/xlink" version="1.1" x="0px" y="0px" viewBox="0 0 85 85" enable-background="new 0 0 85 85" xml:space="preserve">
    <path fill="#fff" d="M75.655,43.415c-0.859-4.82-5.553-8.149-10.446-7.278c-0.82,0.148-1.573,0.438-2.292,0.785l-6.301-8.32  c1.695-1.98,2.554-4.65,2.062-7.41c-0.768-4.296-4.49-7.415-8.85-7.415c-0.531,0-1.067,0.048-1.596,0.142  c-4.861,0.874-8.108,5.525-7.27,10.385l-8.903,3.092c-1.564-2.74-4.497-4.537-7.802-4.537c-0.531,0-1.067,0.048-1.594,0.142  c-4.88,0.875-8.139,5.559-7.265,10.441c0.685,3.825,3.716,6.702,7.447,7.289l0.211,10.516c-1.927,0.583-3.606,1.748-4.773,3.424  c-1.374,1.973-1.896,4.361-1.471,6.725c0.767,4.296,4.484,7.413,8.84,7.413c0.534,0,1.073-0.047,1.599-0.142  c2.369-0.425,4.432-1.745,5.805-3.722c0.29-0.416,0.52-0.858,0.732-1.309l8.674,2.627c-0.091,0.833-0.108,1.685,0.046,2.551  c0.774,4.292,4.496,7.408,8.853,7.408c0.53,0,1.066-0.048,1.594-0.143c2.366-0.425,4.425-1.744,5.798-3.716  c1.373-1.973,1.895-4.361,1.47-6.726c-0.349-1.947-1.324-3.631-2.672-4.914l5.337-7.656c1.191,0.578,2.508,0.928,3.904,0.928  c0.532,0,1.07-0.049,1.599-0.144c2.369-0.425,4.429-1.749,5.802-3.726C75.562,48.154,76.082,45.769,75.655,43.415z M58.93,40.736  l-6.715-1.956l-0.191-7.325c0.762-0.194,1.477-0.478,2.139-0.846l6.183,8.162C59.781,39.359,59.316,40.022,58.93,40.736z   M49.554,58.435c-0.818,0.168-1.573,0.461-2.284,0.827L36.908,45.717l4.495-6.783l7.701,2.243L49.554,58.435z M26.218,50.864  l-0.204-10.202c0.844-0.169,1.633-0.474,2.378-0.861l4.626,6.049l-3.792,5.721C28.29,51.169,27.279,50.926,26.218,50.864z   M30.9,37.864c0.253-0.281,0.518-0.55,0.736-0.864c0.173-0.249,0.293-0.521,0.439-0.782l6.141,1.789l-3.345,5.048L30.9,37.864z   M43.236,36.166l3.323-5.014c0.726,0.282,1.499,0.45,2.298,0.536l0.161,6.162L43.236,36.166z M48.792,17.039  c0.349-0.062,0.694-0.092,1.036-0.092c2.824,0,5.232,2.019,5.73,4.802c0.565,3.162-1.548,6.194-4.71,6.763  c-3.194,0.579-6.203-1.587-6.762-4.708C43.52,20.642,45.631,17.607,48.792,17.039z M43.857,29.492l-3.808,5.746l-6.936-2.02  c0.142-0.931,0.164-1.881,0.005-2.836l8.92-3.098C42.522,28.122,43.145,28.858,43.857,29.492z M18.518,32.884  c-0.566-3.164,1.544-6.197,4.704-6.764c0.348-0.062,0.694-0.092,1.036-0.092c2.823,0,5.234,2.02,5.733,4.802  c0.274,1.534-0.064,3.08-0.954,4.356c-0.89,1.277-2.225,2.131-3.758,2.406C22.054,38.163,19.077,36.003,18.518,32.884z   M30.454,63.137c-0.89,1.28-2.226,2.135-3.763,2.41c-3.215,0.571-6.201-1.588-6.759-4.711c-0.275-1.53,0.062-3.076,0.951-4.353  c0.889-1.276,2.221-2.13,3.757-2.403c0.352-0.063,0.703-0.095,1.048-0.095c2.816,0,5.219,2.017,5.713,4.799  C31.678,60.316,31.341,61.86,30.454,63.137z M34.598,60.569c0.064-0.774,0.065-1.557-0.077-2.343  c-0.345-1.941-1.315-3.621-2.655-4.901l3.189-4.813l9.695,12.674c-0.558,0.614-1.03,1.293-1.402,2.035L34.598,60.569z   M56.151,70.554c-0.889,1.278-2.223,2.134-3.757,2.407c-3.211,0.591-6.205-1.588-6.766-4.706c-0.565-3.165,1.548-6.201,4.713-6.767  c0.349-0.062,0.694-0.093,1.037-0.093c2.819,0,5.226,2.021,5.724,4.803C57.378,67.729,57.041,69.277,56.151,70.554z M54.907,58.976  c-0.692-0.297-1.42-0.514-2.185-0.629L52.3,42.106l5.636,1.642c-0.129,0.922-0.16,1.869,0.013,2.833  c0.323,1.803,1.186,3.376,2.376,4.621L54.907,58.976z M71.591,48.318c-0.89,1.282-2.227,2.139-3.76,2.416  c-3.211,0.571-6.203-1.59-6.765-4.713c-0.565-3.158,1.546-6.194,4.702-6.766c0.347-0.061,0.691-0.091,1.032-0.091  c2.826,0,5.236,2.021,5.734,4.811C72.812,45.5,72.475,47.043,71.591,48.318z"/>
    
</svg>