<svg xmlns="http://www.w3.org/2000/svg" xmlns:xlink="http://www.w3.org/1999/xlink" version="1.1" x="0px" y="0px" viewBox="0 0 96 96" enable-background="new 0 0 96 96" xml:space="preserve">
    <g>
        <path fill="#fff" d="M83.6 73L81 75.9l2.5 2.3H67.4c-1 0.8-2 1.6-3.1 2.2 -1.4 0.9-2.8 1.6-4.2 2.2h24l-2.9 2.9 2.4 2.7 7.7-7.8L83.6 73z"/>
        <path fill="#fff" d="M18.1 47.6l-0.9-2.3c-2.6 11.3 1.4 23.1 10.2 30.4h8c-11-5.4-16.7-17.7-13.9-29.4L18.1 47.6z"/>
        <path fill="#fff" d="M29 41.6l-1.6-3.5L24 39.6c6.4-11.7 20.9-16.8 33.4-11.4 11.9 5.2 17.9 18.1 14.9 30.3l3.1-1.2 1 2.7c1-3.6 1.2-7.3 0.8-11 6.8-2.5 11.5-9 11.5-16.4 0-9.6-7.8-17.4-17.4-17.4 -2.1 0-4.1 0.4-6.1 1.1l1.2-3.5 -3.4-1.4 -3.5 10.4 10.2 3.4 1-3.7 -3.2-1 -0.1-0.2c1.3-0.4 2.6-0.6 3.9-0.6 7.1 0 12.9 5.8 12.9 12.9 0 5.2-3.1 9.8-7.8 11.8 -2.3-8.7-8.4-16.4-17.3-20.3C44.4 17.8 27.3 23.9 19.9 38l-1.4-3.7L15 35.4l4 10.2L29 41.6z"/>
        <path fill="#fff" d="M62.9 78.2c4.5-2.7 8.2-6.6 10.9-11.5l1.4 3.6 3.5-1.1 -4-10.2 -10 3.9 1.6 3.5 3.6-1.5c0 0 0 0.1-0.1 0.1 0 0 0 0 0 0 -0.1 0.2-0.3 0.4-0.4 0.7 0 0 0 0.1-0.1 0.1 -0.1 0.2-0.3 0.4-0.4 0.7 0 0-0.1 0.1-0.1 0.1 -0.1 0.2-0.3 0.4-0.4 0.6 0 0 0 0 0 0.1 -0.1 0.2-0.3 0.4-0.4 0.6 0 0 0 0.1-0.1 0.1 -0.2 0.2-0.3 0.4-0.5 0.6 0 0-0.1 0.1-0.1 0.1 -0.2 0.2-0.3 0.4-0.5 0.6 0 0 0 0-0.1 0.1 -0.2 0.2-0.3 0.4-0.5 0.6 0 0 0 0-0.1 0.1 -0.2 0.2-0.4 0.4-0.5 0.6 0 0-0.1 0.1-0.1 0.1 -0.2 0.2-0.4 0.4-0.6 0.5 0 0 0 0-0.1 0.1 -0.2 0.2-0.4 0.3-0.6 0.5 0 0 0 0 0 0 -0.2 0.2-0.4 0.3-0.6 0.5 0 0-0.1 0.1-0.1 0.1 -0.2 0.2-0.4 0.3-0.6 0.5 0 0-0.1 0-0.1 0.1 -0.2 0.2-0.4 0.3-0.6 0.5 0 0 0 0 0 0 -0.2 0.2-0.4 0.3-0.7 0.4 0 0-0.1 0-0.1 0.1 -0.2 0.1-0.4 0.3-0.6 0.4 0 0-0.1 0-0.1 0.1 -0.5 0.3-0.9 0.5-1.4 0.8 0 0-0.1 0-0.1 0 -0.2 0.1-0.5 0.2-0.7 0.4 0 0-0.1 0-0.1 0 -0.5 0.2-1 0.5-1.5 0.7 0 0 0 0-0.1 0 -0.2 0.1-0.5 0.2-0.7 0.3 0 0-0.1 0-0.1 0 -0.5 0.2-1 0.4-1.5 0.5 0 0 0 0 0 0 -0.3 0.1-0.5 0.1-0.8 0.2 0 0-0.1 0-0.1 0 -0.3 0.1-0.5 0.1-0.8 0.2 0 0 0 0 0 0 -0.3 0.1-0.5 0.1-0.8 0.2 0 0 0 0 0 0 -0.3 0.1-0.5 0.1-0.8 0.1 0 0-0.1 0-0.1 0 -0.3 0-0.5 0.1-0.8 0.1 0 0 0 0 0 0 -0.3 0-0.6 0.1-0.8 0.1 0 0 0 0 0 0 0 0-3.3 0-5.1 0H31 4.8v2.2 2.2h41.2 3.9c3-0.2 6.1-1 8.9-2.2 1.5-0.6 2.9-1.4 4.2-2.2H62.9z"/>
    </g>
</svg>